<svg width="19" height="23" viewBox="0 0 19 23" fill="none" xmlns="http://www.w3.org/2000/svg">
<path d="M10.9555 9.21606C10.9555 9.60266 11.2689 9.91606 11.6555 9.91606C12.0421 9.91606 12.3555 9.60266 12.3555 9.21606H10.9555ZM7.86768 1.1239V0.423901V1.1239ZM3.37986 9.21606C3.37986 9.60266 3.69326 9.91606 4.07986 9.91606C4.46646 9.91606 4.77986 9.60266 4.77986 9.21606H3.37986ZM15.2158 6.84023C15.2158 7.22683 15.5293 7.54023 15.9158 7.54023C16.3024 7.54023 16.6158 7.22683 16.6158 6.84023H15.2158ZM15.9158 4.9291H16.6159L16.6158 4.91982L15.9158 4.9291ZM11.9372 0.492385C11.5506 0.492445 11.2372 0.805894 11.2373 1.19249C11.2373 1.57909 11.5508 1.89244 11.9374 1.89238L11.9372 0.492385ZM6.69398 13.1589C6.69398 13.5455 7.00738 13.8589 7.39398 13.8589C7.78058 13.8589 8.09398 13.5455 8.09398 13.1589H6.69398ZM7.39398 6.84009H8.09398C8.09398 6.45349 7.78058 6.14009 7.39398 6.14009V6.84009ZM1.23877 6.84009V6.14009C0.85217 6.14009 0.53877 6.45349 0.53877 6.84009H1.23877ZM1.23877 22H0.53877C0.53877 22.3866 0.85217 22.7 1.23877 22.7L1.23877 22ZM9.69454 6.14009C9.30795 6.14009 8.99454 6.45349 8.99454 6.84009C8.99454 7.22668 9.30795 7.54008 9.69454 7.54008V6.14009ZM14.9703 22V22.7H15.2602L15.4653 22.495L14.9703 22ZM15.9172 21.053L16.4122 20.558L15.9173 20.0631L15.4223 20.558L15.9172 21.053ZM16.8642 22L16.3692 22.495L16.5743 22.7H16.8642V22ZM17.3377 22V22.7H18.0377V22H17.3377ZM17.3377 6.84009H18.0377V6.14009H17.3377V6.84009ZM7.86799 13.4774L8.36296 12.9824C8.23169 12.8512 8.05364 12.7774 7.86799 12.7774V13.4774ZM9.28842 14.8979H9.98842C9.98842 14.7122 9.91467 14.5342 9.78339 14.4029L9.28842 14.8979ZM9.28842 18.6857V19.3857C9.67502 19.3857 9.98842 19.0723 9.98842 18.6857H9.28842ZM5.5006 18.6857H4.8006C4.8006 19.0723 5.114 19.3857 5.5006 19.3857V18.6857ZM5.5006 14.8979L5.00562 14.4029C4.87435 14.5342 4.8006 14.7122 4.8006 14.8979H5.5006ZM6.92103 13.4774V12.7774C6.73538 12.7774 6.55733 12.8512 6.42606 12.9824L6.92103 13.4774ZM3.13321 8.51616C2.74661 8.51616 2.43321 8.82956 2.43321 9.21616C2.43321 9.60276 2.74661 9.91616 3.13321 9.91616V8.51616ZM5.02712 9.91616C5.41372 9.91616 5.72712 9.60276 5.72712 9.21616C5.72712 8.82956 5.41372 8.51616 5.02712 8.51616V9.91616ZM10.7079 8.51616C10.3213 8.51616 10.0079 8.82956 10.0079 9.21616C10.0079 9.60276 10.3213 9.91616 10.7079 9.91616V8.51616ZM12.6018 9.91616C12.9884 9.91616 13.3018 9.60276 13.3018 9.21616C13.3018 8.82956 12.9884 8.51616 12.6018 8.51616V9.91616ZM12.3555 9.21606V4.91172H10.9555V9.21606H12.3555ZM12.3555 4.91172C12.3555 3.72148 11.8827 2.57998 11.0411 1.73835L10.0511 2.7283C10.6302 3.30738 10.9555 4.09278 10.9555 4.91172H12.3555ZM11.0411 1.73835C10.1994 0.896725 9.05793 0.423901 7.86768 0.423901V1.8239C8.68662 1.8239 9.47202 2.14922 10.0511 2.7283L11.0411 1.73835ZM7.86768 0.423901C6.67744 0.423901 5.53594 0.896725 4.69431 1.73835L5.68426 2.7283C6.26334 2.14922 7.04874 1.8239 7.86768 1.8239V0.423901ZM4.69431 1.73835C3.85268 2.57998 3.37986 3.72148 3.37986 4.91172H4.77986C4.77986 4.09278 5.10518 3.30738 5.68426 2.7283L4.69431 1.73835ZM3.37986 4.91172V9.21606H4.77986V4.91172H3.37986ZM16.6158 6.84023V4.9291H15.2158V6.84023H16.6158ZM16.6158 4.91982C16.6068 4.23936 16.444 3.56975 16.1397 2.96108L14.8875 3.58718C15.0974 4.00706 15.2097 4.46898 15.2159 4.93838L16.6158 4.91982ZM16.1397 2.96108C15.8353 2.3524 15.3973 1.82043 14.8583 1.40494L14.0036 2.51371C14.3753 2.80033 14.6775 3.1673 14.8875 3.58718L16.1397 2.96108ZM14.8583 1.40494C14.3194 0.989454 13.6934 0.701213 13.0274 0.561778L12.7405 1.93208C13.2 2.02826 13.6318 2.2271 14.0036 2.51371L14.8583 1.40494ZM13.0274 0.561778C12.897 0.53449 12.8324 0.518472 12.7858 0.507466C12.7362 0.495723 12.6449 0.473131 12.5222 0.475563C12.3724 0.478531 12.4121 0.492312 11.9372 0.492385L11.9374 1.89238C12.3597 1.89232 12.5914 1.87447 12.5499 1.87529C12.4814 1.87665 12.4233 1.86035 12.4637 1.8699C12.5072 1.88019 12.5895 1.90046 12.7405 1.93208L13.0274 0.561778ZM8.09398 13.1589V6.84009H6.69398V13.1589H8.09398ZM7.39398 6.14009H1.23877V7.54008H7.39398V6.14009ZM0.53877 6.84009V22H1.93877V6.84009H0.53877ZM1.23877 22.7H14.4961V21.3H1.23877V22.7ZM15.1961 22V6.84009H13.7961V22H15.1961ZM14.4961 6.14009H9.69454V7.54008H14.4961V6.14009ZM14.4961 22.7H14.9703V21.3H14.4961V22.7ZM15.4653 22.495L16.4122 21.548L15.4223 20.558L14.4753 21.505L15.4653 22.495ZM15.4223 21.548L16.3692 22.495L17.3592 21.505L16.4122 20.558L15.4223 21.548ZM16.8642 22.7H17.3377V21.3H16.8642V22.7ZM18.0377 22V6.84009H16.6377V22H18.0377ZM17.3377 6.14009H14.4961V7.54008H17.3377V6.14009ZM7.37301 13.9724L8.79344 15.3928L9.78339 14.4029L8.36296 12.9824L7.37301 13.9724ZM8.58842 14.8979V18.6857H9.98842V14.8979H8.58842ZM9.28842 17.9857H5.5006V19.3857H9.28842V17.9857ZM6.2006 18.6857V14.8979H4.8006V18.6857H6.2006ZM5.99557 15.3928L7.41601 13.9724L6.42606 12.9824L5.00562 14.4029L5.99557 15.3928ZM6.92103 14.1774H7.86799V12.7774H6.92103V14.1774ZM3.13321 9.91616H5.02712V8.51616H3.13321V9.91616ZM10.7079 9.91616H12.6018V8.51616H10.7079V9.91616Z" fill="white"/>
</svg>
